<svg width="512" height="512" viewBox="0 0 512 512" fill="none" xmlns="http://www.w3.org/2000/svg">
  <defs>
    <linearGradient id="bg" x1="64" y1="64" x2="448" y2="448" gradientUnits="userSpaceOnUse">
      <stop stop-color="#0F172A"/>
      <stop offset="1" stop-color="#1E293B"/>
    </linearGradient>
    <linearGradient id="accent" x1="122" y1="128" x2="390" y2="384" gradientUnits="userSpaceOnUse">
      <stop stop-color="#10B981"/>
      <stop offset="1" stop-color="#0EA5E9"/>
    </linearGradient>
  </defs>

  <rect x="32" y="32" width="448" height="448" rx="120" fill="url(#bg)"/>

  <path d="M154 362V150H269C324 150 357 179 357 228C357 278 323 309 269 309H206V362H154Z" fill="url(#accent)"/>
  <path d="M206 196V262H262C292 262 306 249 306 229C306 209 292 196 262 196H206Z" fill="url(#bg)"/>

  <rect x="340" y="306" width="20" height="64" rx="10" transform="rotate(18 340 306)" fill="#22D3EE"/>
  <rect x="373" y="283" width="20" height="87" rx="10" transform="rotate(18 373 283)" fill="#34D399"/>
</svg>
